<svg width="150" height="675" viewBox="0 0 150 675" fill="none" xmlns="http://www.w3.org/2000/svg">
<path d="M0.379639 -31.8953L58.3764 26.1015C98.6642 66.3893 163.966 66.3893 204.032 26.1015L237.236 -7.10276C244.32 -14.1863 255.609 -14.1863 262.693 -7.10276L262.914 -6.8814C270.219 0.423531 270.219 12.1557 262.914 19.4606C251.846 30.5287 174.813 107.563 157.325 125.05C120.579 161.796 120.579 221.342 157.325 258.088C194.071 294.834 253.617 294.834 290.363 258.088L612.666 -64.214L683.501 -54.4741L566.18 62.8475C515.045 113.982 515.045 196.993 566.18 248.127C617.314 299.262 700.325 299.262 751.459 248.127L930.762 68.8243C938.51 61.0766 951.128 61.0766 958.875 68.8243C966.623 76.5719 966.623 89.1895 958.875 96.9372L693.684 362.35C664.686 391.348 664.686 438.055 693.684 467.054C722.682 496.052 769.39 496.052 798.388 467.054L982.339 283.102C990.751 274.691 1004.25 274.691 1012.44 283.102C1020.86 291.514 1020.86 305.017 1012.44 313.207L1009.12 316.528C948.028 377.624 948.028 476.572 1009.12 537.668L1146.37 674.912V-120.44" fill="#91CFF2"/>
</svg>
