<svg width="34" height="34" viewBox="0 0 34 34" fill="none" xmlns="http://www.w3.org/2000/svg">
<path d="M2.43439 2.77515C4.86936 0.340169 9.07518 0.340169 11.5102 2.77515L30.99 22.255C33.425 24.69 33.425 28.8958 30.99 31.3308C28.555 33.7657 24.3491 33.7657 21.9142 31.3308L2.43439 11.851C-0.000589848 9.41601 -0.000589848 5.43148 2.43439 2.77515Z" fill="#31346B"/>
<path d="M31.2099 2.77518C33.6449 5.21015 33.6449 9.41604 31.2099 11.851L11.7301 31.3308C9.29509 33.7658 5.08921 33.7658 2.65424 31.3308C0.219259 28.8958 0.219259 24.69 2.65424 22.255L22.1341 2.77518C24.5691 0.3402 28.5536 0.3402 31.2099 2.77518Z" fill="#31346B"/>
</svg>
